<svg xmlns="http://www.w3.org/2000/svg" width="547" height="596" viewBox="0 0 547 596" version="1.1"><path d="M 216 83.591 C 211.875 86.012, 207.375 88.542, 206 89.213 C 204.625 89.884, 202.150 91.404, 200.500 92.591 C 198.850 93.778, 194.800 96.223, 191.500 98.024 C 188.200 99.826, 185.275 101.629, 185 102.032 C 184.725 102.434, 182.848 103.605, 180.829 104.632 C 175.784 107.199, 166.534 112.620, 160.331 116.646 C 157.487 118.491, 154.864 120, 154.500 120 C 154.136 120, 151.513 121.508, 148.669 123.352 C 143.513 126.695, 132.907 133.120, 127.813 135.987 C 118.136 141.434, 111.081 145.687, 108.406 147.687 C 106.704 148.959, 105.014 150, 104.650 150 C 104.287 150, 101.297 151.683, 98.006 153.740 L 92.023 157.480 91.762 195.875 L 91.500 234.271 84.500 238.006 C 80.650 240.060, 68.500 246.525, 57.500 252.374 C 46.500 258.222, 36.825 263.392, 36 263.862 C 34.695 264.606, 34.464 273.170, 34.224 329.609 C 34.072 365.299, 34.193 395.512, 34.493 396.750 C 34.793 397.987, 35.689 399, 36.484 399 C 37.280 399, 39.409 400.284, 41.215 401.853 C 43.022 403.423, 45.455 405.208, 46.622 405.820 C 47.788 406.432, 52.441 409.535, 56.960 412.716 C 61.480 415.897, 66.870 419.625, 68.939 421 C 71.008 422.375, 76 425.687, 80.031 428.359 C 84.063 431.032, 87.987 433.844, 88.752 434.609 C 89.517 435.374, 90.561 436, 91.071 436 C 91.625 436, 92 449.933, 92 470.494 L 92 504.987 96.150 507.994 C 98.433 509.647, 100.740 511, 101.279 511 C 101.817 511, 104.894 512.800, 108.117 515 C 111.340 517.200, 114.330 519, 114.761 519 C 115.193 519, 117.937 520.575, 120.860 522.500 C 123.783 524.425, 126.522 526, 126.948 526 C 127.373 526, 129.359 527.112, 131.361 528.470 C 133.363 529.829, 137.588 532.362, 140.751 534.098 C 143.913 535.835, 147.175 537.801, 148 538.467 C 148.825 539.133, 152.601 541.438, 156.391 543.589 C 163.264 547.490, 165.162 548.585, 176.500 555.192 C 183.730 559.405, 192.068 564.438, 197.500 567.868 C 199.700 569.258, 203.300 571.350, 205.500 572.518 C 207.700 573.686, 212.761 576.530, 216.747 578.837 L 223.994 583.032 229.747 580.071 C 232.911 578.442, 237.525 575.737, 240 574.059 C 242.475 572.381, 244.859 571.007, 245.298 571.004 C 245.737 571.002, 248.558 569.425, 251.567 567.500 C 254.577 565.575, 257.419 564, 257.885 564 C 258.350 564, 259.803 563.172, 261.115 562.160 C 262.427 561.148, 265.975 558.955, 269 557.286 C 275.154 553.890, 284.426 548.443, 290.575 544.611 C 292.816 543.214, 295.403 541.783, 296.325 541.429 C 297.862 540.839, 298 536.511, 298 488.876 L 298 436.967 324.250 437.233 L 350.500 437.500 350.778 451.174 C 351.049 464.535, 351.005 464.864, 348.836 465.552 C 345.956 466.466, 336.973 473.575, 335.019 476.487 C 334.183 477.731, 332.646 479.954, 331.602 481.426 C 329.092 484.964, 326 496.310, 326 501.982 C 326 504.470, 326.861 509.517, 327.913 513.197 C 331.164 524.564, 338.085 532.609, 349.648 538.462 C 355.028 541.186, 356.347 541.425, 366 541.425 C 375.648 541.425, 376.976 541.184, 382.373 538.462 C 394.735 532.228, 402.766 522.338, 404.975 510.632 C 406.285 503.691, 405.936 495.298, 404.077 489 C 401.703 480.956, 391.177 468.539, 384.620 466.046 L 382 465.050 382 436.025 L 382 407 340 407 L 298 407 298 392 L 298 377 348.315 377 L 398.630 377 406.815 386.036 C 411.317 391.007, 415 395.437, 415 395.883 C 415 396.328, 414.212 398.224, 413.250 400.096 C 410.682 405.091, 410.775 424.066, 413.393 429 C 422.136 445.482, 432.252 452.604, 448.538 453.744 C 460.823 454.603, 475.297 448.747, 480.975 440.620 C 481.790 439.454, 483.366 437.456, 484.478 436.181 C 487.893 432.263, 491.004 421.414, 490.966 413.555 C 490.926 405.489, 487.125 394.289, 482.951 389.939 C 481.603 388.533, 479.838 386.398, 479.029 385.192 C 478.220 383.986, 477.038 383, 476.402 383 C 475.765 383, 474.662 382.298, 473.950 381.440 C 469.880 376.535, 454.366 373.092, 444.531 374.910 L 438.562 376.013 433.031 369.856 C 429.989 366.470, 425.925 362.038, 424 360.008 C 422.075 357.978, 418.331 353.996, 415.681 351.158 L 410.861 346 354.431 346 L 298 346 298 333 L 298 320 373.500 320 C 425.228 320, 449 320.328, 449 321.043 C 449 322.894, 456.634 332.483, 460.386 335.345 C 467.444 340.729, 474.798 343.359, 484.049 343.809 C 491.880 344.190, 493.235 343.960, 500.188 341.066 C 510.713 336.684, 518.553 328.863, 523.141 318.167 C 525.575 312.493, 525.753 296.046, 523.439 290.509 C 519.180 280.314, 512.167 272.710, 502.833 268.162 C 494.005 263.861, 486.499 262.553, 479.198 264.042 C 465.568 266.822, 452.050 277.525, 448.622 288.250 C 448.096 289.896, 443.610 290, 373.031 290 L 298 290 298 274 L 298 258 351.500 258 L 405 258 405 228.200 C 405 197.889, 405.221 196, 408.770 196 C 410.596 196, 417.750 191.019, 421.907 186.853 C 427.386 181.361, 432.231 170.081, 432.779 161.542 C 433.655 147.896, 426.930 134.412, 415.192 126.275 C 407.127 120.684, 404.519 119.931, 393.201 119.920 C 381.837 119.910, 378.516 120.753, 371.314 125.474 C 361.825 131.694, 355.036 142.028, 352.921 153.471 C 351.495 161.181, 352.494 167.504, 356.435 175.714 C 360.342 183.852, 363.448 187.691, 370.045 192.533 L 375 196.170 375 212.085 L 375 228 336.500 228 L 298 228 298 172.979 L 298 117.957 295.250 116.749 C 293.738 116.084, 292.275 115.289, 292 114.982 C 291.725 114.675, 288.350 112.821, 284.500 110.862 C 280.650 108.902, 274.575 105.732, 271 103.815 C 267.425 101.899, 260.900 98.401, 256.500 96.043 C 243.169 88.898, 224.038 78.994, 223.761 79.094 C 223.617 79.146, 220.125 81.170, 216 83.591 M 218.500 117.520 C 215.750 119.417, 212.998 120.976, 212.385 120.985 C 211.772 120.993, 210.197 121.833, 208.885 122.851 C 207.573 123.869, 203.810 126.190, 200.521 128.008 C 197.233 129.827, 194.048 131.806, 193.444 132.407 C 192.840 133.008, 189.793 134.833, 186.673 136.461 L 181 139.422 181 167.711 L 181 196 165.500 196 L 150 196 150 177.009 L 150 158.018 144.882 161.259 C 138.729 165.155, 129.711 170.412, 125.250 172.702 L 122 174.370 122 203.945 L 122 233.519 124.250 234.962 C 125.487 235.755, 130.775 238.614, 136 241.314 C 146.138 246.553, 155.376 251.431, 160.409 254.202 C 164.188 256.283, 166.726 256.402, 170 254.651 C 174.446 252.274, 192.280 242.850, 200.500 238.533 L 208.500 234.333 208.770 212.666 L 209.039 191 212.270 190.939 C 214.046 190.905, 220.794 190.793, 227.264 190.689 L 239.028 190.500 238.764 221.830 L 238.500 253.160 226.500 259.408 C 219.900 262.845, 210 268.046, 204.500 270.967 C 199 273.889, 191.463 277.785, 187.750 279.626 L 181 282.974 181 297.873 L 181 312.772 188.113 317.136 C 198.275 323.370, 197.949 323.162, 204.187 327.367 C 209.432 330.902, 209.800 331.395, 208.918 333.714 C 208.393 335.097, 207.037 337.415, 205.905 338.865 C 204.774 340.314, 201.587 345.017, 198.824 349.315 C 194.163 356.564, 193.675 357.016, 192.071 355.565 C 191.121 354.704, 189.948 354, 189.465 354 C 188.982 354, 186.021 352.200, 182.884 350 C 179.748 347.800, 176.772 346, 176.271 346 C 175.770 346, 173.455 344.369, 171.126 342.376 L 166.893 338.752 164.696 340.784 C 163.488 341.901, 158.519 345.771, 153.654 349.383 C 144.018 356.539, 144.069 356.535, 140 350.410 C 139.175 349.169, 135.612 344.431, 132.082 339.882 C 128.022 334.651, 126.128 331.457, 126.929 331.190 C 127.624 330.959, 129.613 329.566, 131.347 328.096 C 133.081 326.626, 137.988 322.791, 142.250 319.573 L 150 313.723 150 298.722 C 150 281.562, 150.763 283.105, 139.500 277.480 C 135.650 275.558, 131.375 273.357, 130 272.589 C 125.594 270.129, 117.655 265.995, 112.157 263.298 L 106.814 260.678 95.157 266.788 C 88.746 270.148, 79.450 275.058, 74.500 277.699 L 65.500 282.500 65.217 293.750 C 65.062 299.938, 65.170 305, 65.458 305 C 65.746 305, 69.474 303.126, 73.741 300.837 C 88.635 292.845, 90.348 292, 91.658 292 C 92.823 292, 95.358 296.334, 103.770 312.707 C 105.019 315.137, 105.752 317.592, 105.400 318.162 C 105.047 318.732, 102.226 320.408, 99.130 321.885 C 96.033 323.362, 91.394 325.817, 88.820 327.340 C 82.878 330.854, 74.713 335.254, 69.250 337.883 L 65 339.929 65 360.749 L 65 381.569 68.250 383.457 C 70.038 384.496, 73.065 386.618, 74.978 388.173 C 76.891 389.728, 78.991 391, 79.645 391 C 80.298 391, 80.983 391.389, 81.167 391.865 C 81.350 392.341, 84.650 394.827, 88.500 397.390 C 92.350 399.952, 97.975 403.813, 101 405.970 C 104.025 408.127, 106.746 409.916, 107.047 409.946 C 107.347 409.976, 108.472 409.329, 109.547 408.509 C 111.381 407.108, 115.357 404.422, 131.750 393.505 C 135.463 391.033, 138.950 388.647, 139.500 388.203 C 140.050 387.759, 144.067 385.046, 148.426 382.174 C 154.213 378.360, 156.561 377.290, 157.128 378.206 C 157.554 378.897, 158.824 380.596, 159.949 381.981 C 161.074 383.366, 164.481 388.278, 167.520 392.896 C 172.793 400.907, 172.968 401.378, 171.337 403.181 C 170.396 404.220, 168.663 405.616, 167.485 406.285 C 166.308 406.953, 161.366 410.200, 156.503 413.500 C 151.641 416.800, 146.235 420.400, 144.490 421.500 C 141.274 423.527, 137.255 426.336, 127.433 433.418 L 122 437.336 122.006 462.418 L 122.013 487.500 125.256 489.489 C 127.040 490.583, 131.200 493.063, 134.500 495 C 143.708 500.405, 146.754 502.231, 152.344 505.696 C 155.180 507.453, 159.356 509.838, 161.624 510.996 L 165.747 513.101 170.624 510.393 C 173.306 508.904, 176.892 506.631, 178.594 505.343 C 180.296 504.054, 182.005 503, 182.392 503 C 182.779 503, 185.558 501.425, 188.567 499.500 C 191.577 497.575, 194.376 496, 194.787 496 C 195.199 496, 197.250 494.835, 199.346 493.411 C 201.441 491.987, 203.251 490.975, 203.368 491.161 C 203.485 491.347, 204.800 493.157, 206.290 495.183 C 207.781 497.209, 209 499.286, 209 499.798 C 209 500.311, 209.838 501.803, 210.862 503.115 C 211.886 504.427, 214.150 508.037, 215.893 511.137 L 219.063 516.773 213.408 520.137 C 210.298 521.987, 205.449 524.864, 202.634 526.532 C 197.742 529.429, 195.371 532.912, 198.177 533.079 C 198.905 533.122, 201.525 534.470, 204 536.076 C 206.475 537.681, 209.927 539.661, 211.671 540.477 C 213.414 541.293, 216.855 543.319, 219.316 544.980 C 221.777 546.641, 224.208 548, 224.719 548 C 225.230 548, 227.863 546.425, 230.571 544.500 C 233.278 542.575, 235.844 541, 236.271 541 C 236.699 541, 239.899 539.200, 243.383 537 C 246.866 534.800, 249.996 533, 250.339 533 C 250.681 533, 253.332 531.518, 256.231 529.707 C 259.129 527.896, 262.738 525.881, 264.250 525.229 L 267 524.043 267 470.521 C 267 441.069, 266.611 417, 266.135 417 C 265.659 417, 264.126 417.900, 262.727 419 C 261.329 420.100, 259.782 421, 259.289 421 C 258.797 421, 256.618 422.301, 254.447 423.891 C 252.276 425.480, 248.250 428.012, 245.500 429.517 C 242.750 431.021, 239.571 433.095, 238.436 434.126 C 237.300 435.157, 235.950 436.001, 235.436 436.001 C 234.921 436.002, 231.908 437.802, 228.739 440.001 C 225.571 442.201, 222.650 444, 222.248 444 C 221.846 444, 219.263 445.494, 216.509 447.320 C 207.226 453.472, 199.516 458.422, 196.813 459.966 C 186.808 465.678, 180.763 469.380, 179.696 470.447 C 179.016 471.127, 177.492 472.201, 176.311 472.834 C 174.326 473.896, 173.888 473.493, 170.561 467.543 C 168.580 464, 166.327 460.470, 165.554 459.697 C 164.781 458.924, 163.449 456.763, 162.594 454.896 C 161.740 453.028, 160.501 450.760, 159.842 449.855 C 158.845 448.488, 159.137 447.777, 161.572 445.637 C 163.182 444.221, 165.232 443.049, 166.128 443.032 C 167.023 443.014, 168.303 442.340, 168.973 441.532 C 170.018 440.273, 179.925 434.021, 188.836 428.998 C 190.301 428.172, 192.850 426.543, 194.500 425.379 C 196.150 424.214, 199.366 422.317, 201.646 421.163 C 203.926 420.010, 206.401 418.459, 207.146 417.718 C 207.891 416.977, 211.824 414.375, 215.887 411.935 C 219.950 409.496, 224.742 406.600, 226.535 405.500 C 228.329 404.400, 233.399 401.348, 237.803 398.718 C 242.206 396.087, 246.357 393.275, 247.027 392.468 C 247.697 391.660, 248.790 391, 249.457 391 C 250.123 391, 253.106 389.310, 256.084 387.244 C 259.063 385.178, 262.738 382.938, 264.250 382.265 L 267 381.043 266.992 258.771 L 266.984 136.500 262.742 134.133 C 255.116 129.877, 243.620 123.774, 237.500 120.732 C 234.200 119.092, 230.427 116.906, 229.115 115.875 C 225.834 113.295, 224.274 113.537, 218.500 117.520 M 388.357 150.992 C 385.333 152.212, 382.997 155.920, 383.015 159.473 C 383.033 163.009, 383.512 163.810, 387.385 166.784 C 391.624 170.040, 395.539 169.661, 399.600 165.600 C 403.393 161.807, 403.647 160.485, 401.548 155.462 C 399.530 150.632, 393.942 148.738, 388.357 150.992 M 479.009 297.148 C 471.076 305.449, 480.936 318.207, 490.604 312.151 C 494.028 310.007, 495.352 306.008, 494.329 300.897 C 493.928 298.892, 492.610 297.123, 490.604 295.900 C 486.008 293.098, 482.521 293.473, 479.009 297.148 M 446.465 405.952 C 442.957 407.374, 441.868 409.588, 442.192 414.639 C 442.463 418.850, 442.926 419.720, 446 421.789 C 454.049 427.207, 463.973 418.650, 459.553 410.103 C 457.087 405.334, 451.983 403.715, 446.465 405.952 M 363 492.706 C 356.725 495, 354.747 503.837, 359.455 508.545 C 363.035 512.126, 370.043 512.032, 372.927 508.365 C 375.519 505.071, 375.751 497.894, 373.345 495.488 C 370.463 492.606, 366.321 491.492, 363 492.706" stroke="none" fill="#00bebd" fill-rule="evenodd"/><path d="M 218.250 81.105 C 211.213 85.207, 211.536 85.943, 218.676 82.076 C 223.606 79.406, 224.626 79.171, 226.426 80.287 C 229.281 82.058, 234 84.057, 234 83.495 C 234 83.079, 224.462 77.969, 223.783 78.022 C 223.627 78.034, 221.137 79.421, 218.250 81.105 M 207.500 87.474 C 205.300 88.829, 203.897 89.952, 204.382 89.969 C 205.388 90.004, 212 86.055, 212 85.418 C 212 84.748, 211.711 84.880, 207.500 87.474 M 239 86.490 C 239 87.175, 245.123 90.210, 245.580 89.753 C 245.797 89.536, 244.406 88.610, 242.487 87.695 C 240.569 86.781, 239 86.239, 239 86.490 M 196.205 94.178 C 193.293 95.864, 191.107 97.440, 191.346 97.680 C 191.802 98.135, 202 92.137, 202 91.414 C 202 90.821, 202.022 90.810, 196.205 94.178 M 252 93.493 C 252 94.170, 260.123 98.211, 260.575 97.758 C 260.785 97.549, 258.941 96.398, 256.478 95.202 C 254.015 94.005, 252 93.236, 252 93.493 M 265 100.424 C 265 100.904, 272.836 105, 273.753 105 C 274.134 105, 273.490 104.331, 272.322 103.513 C 270.067 101.933, 265 99.796, 265 100.424 M 181.500 103 C 178.150 105.218, 178.585 105.602, 182.453 103.839 C 183.854 103.201, 185 102.301, 185 101.839 C 185 100.705, 184.929 100.729, 181.500 103 M 172.233 108.430 C 169.336 110.229, 166.636 112.073, 166.233 112.528 C 165.128 113.776, 175.277 107.954, 176.964 106.373 C 179.133 104.340, 178.087 104.794, 172.233 108.430 M 278.084 107.418 C 278.936 108.269, 288.026 113, 288.803 112.996 C 289.844 112.991, 283.040 108.966, 280.098 107.847 C 278.692 107.313, 277.786 107.119, 278.084 107.418 M 158.191 116.708 C 155.821 118.087, 154.091 119.424, 154.346 119.680 C 154.849 120.182, 163 115.292, 163 114.487 C 163 113.875, 163.285 113.743, 158.191 116.708 M 219.750 116.573 C 217.688 117.924, 216 119.253, 216 119.527 C 216 119.801, 217.870 118.845, 220.156 117.402 C 224.203 114.847, 224.405 114.821, 227.906 116.411 L 231.500 118.043 229.139 116.022 C 226.123 113.439, 224.380 113.541, 219.750 116.573 M 292 114.755 C 292 115.199, 293.350 116.071, 295 116.694 C 296.650 117.317, 298 117.652, 298 117.439 C 298 117.226, 296.650 116.353, 295 115.500 C 293.350 114.647, 292 114.312, 292 114.755 M 386.500 118.972 C 384.567 119.446, 386.878 119.710, 393 119.715 C 399.154 119.720, 401.443 119.461, 399.500 118.980 C 395.680 118.034, 390.341 118.030, 386.500 118.972 M 236 120.535 C 236 120.772, 238.363 122.123, 241.250 123.537 C 245.502 125.620, 246.025 125.724, 244 124.084 C 241.588 122.131, 236 119.652, 236 120.535 M 208.861 123.049 L 206.500 125.099 209.750 123.524 C 212.948 121.974, 213.859 121, 212.111 121 C 211.622 121, 210.159 121.922, 208.861 123.049 M 144.742 124.914 C 140.633 127.549, 140.063 128.476, 143.687 126.634 C 145.439 125.743, 147.153 124.561, 147.496 124.007 C 148.297 122.710, 148.058 122.789, 144.742 124.914 M 370.250 125.115 C 368.462 126.260, 367 127.389, 367 127.624 C 367 128.334, 372.826 125.090, 373.496 124.007 C 374.364 122.602, 373.956 122.742, 370.250 125.115 M 413.435 124.895 C 413.807 125.497, 415.041 126.487, 416.176 127.094 C 417.656 127.886, 418.050 127.889, 417.565 127.105 C 417.193 126.503, 415.959 125.513, 414.824 124.906 C 413.344 124.114, 412.950 124.111, 413.435 124.895 M 196.752 129.841 C 195.240 130.754, 194.003 131.822, 194.002 132.216 C 194.001 132.610, 195.575 132.003, 197.500 130.867 C 200.863 128.883, 201.839 127.898, 200.250 128.091 C 199.838 128.142, 198.263 128.929, 196.752 129.841 M 252 129.054 C 254.556 130.798, 261 134.064, 261 133.615 C 261 133.018, 252.322 127.997, 251.322 128.015 C 250.870 128.024, 251.175 128.491, 252 129.054 M 361.946 132.750 L 358.500 136.500 362.250 133.054 C 364.313 131.158, 366 129.471, 366 129.304 C 366 128.540, 365.154 129.260, 361.946 132.750 M 420 129.651 C 420 130.201, 421.125 131.708, 422.500 133 C 423.875 134.292, 425 134.899, 425 134.349 C 425 133.799, 423.875 132.292, 422.500 131 C 421.125 129.708, 420 129.101, 420 129.651 M 131.750 132.572 C 130.238 133.393, 129 134.275, 129 134.532 C 129 135.498, 130.581 134.893, 133 133 C 135.972 130.675, 135.527 130.523, 131.750 132.572 M 120.312 139.327 C 113.446 143.527, 112.156 145.110, 118.500 141.551 C 122.879 139.094, 127.292 135.858, 125.964 136.077 C 125.709 136.119, 123.165 137.581, 120.312 139.327 M 183.752 137.841 L 181.004 139.500 181.002 167.725 L 181 195.949 165.250 196.252 L 149.500 196.555 165.750 196.777 L 182 197 182 168.598 L 182 140.196 185.250 138.115 C 189.079 135.663, 187.761 135.422, 183.752 137.841 M 266.246 257.693 L 266 379.887 263.777 381.443 C 262.555 382.299, 262.019 383, 262.586 383 C 263.154 383, 264.382 382.437, 265.317 381.750 C 266.901 380.584, 266.998 372.284, 266.754 258 L 266.492 135.500 266.246 257.693 M 356.574 139.857 C 354.312 144.231, 354.666 145.074, 357.142 141.208 C 358.301 139.398, 359.002 137.668, 358.698 137.365 C 358.395 137.062, 357.439 138.184, 356.574 139.857 M 427 138.537 C 427 138.897, 427.680 140.386, 428.512 141.846 C 429.344 143.306, 430.662 146.300, 431.442 148.500 C 432.221 150.700, 432.891 151.954, 432.930 151.288 C 433.035 149.466, 429.009 139.123, 427.935 138.460 C 427.421 138.142, 427 138.177, 427 138.537 M 106.750 147.572 C 105.237 148.393, 104 149.275, 104 149.532 C 104 150.498, 105.581 149.893, 108 148 C 110.972 145.675, 110.527 145.523, 106.750 147.572 M 385.073 153.635 C 382.334 157.116, 382.382 165, 385.142 165 C 385.676 165, 385.631 164.179, 385.035 163.066 C 383.306 159.835, 383.866 156.043, 386.455 153.455 C 387.805 152.105, 388.512 151, 388.027 151 C 387.542 151, 386.212 152.186, 385.073 153.635 M 399.026 153.527 C 401.985 156.678, 402.178 162.017, 399.450 165.271 C 398.377 166.550, 398.782 166.280, 400.350 164.671 C 402.666 162.293, 403.084 161.171, 402.585 158.675 C 401.841 154.954, 399.377 151, 397.803 151 C 397.169 151, 397.720 152.137, 399.026 153.527 M 94.273 154.975 L 91.046 156.943 90.773 195.876 C 90.623 217.290, 90.838 234.601, 91.250 234.346 C 91.662 234.091, 92 216.584, 92 195.441 C 92 174.298, 92.338 156.990, 92.750 156.978 C 93.597 156.953, 98.776 153.055, 98 153.026 C 97.725 153.016, 96.048 153.893, 94.273 154.975 M 433.286 159.500 C 433.294 162.250, 433.488 163.256, 433.718 161.736 C 433.947 160.216, 433.941 157.966, 433.704 156.736 C 433.467 155.506, 433.279 156.750, 433.286 159.500 M 145.332 160.875 C 139.235 164.715, 138.697 165.746, 144.500 162.468 C 150.430 159.119, 150.450 159.105, 149.917 158.625 C 149.688 158.418, 147.624 159.431, 145.332 160.875 M 132.741 168.374 C 127.447 171.628, 126.746 172.638, 131.500 170.162 C 136.632 167.488, 138.762 166.026, 137.500 166.047 C 136.950 166.055, 134.808 167.103, 132.741 168.374 M 391.250 168.689 C 392.212 168.941, 393.788 168.941, 394.750 168.689 C 395.712 168.438, 394.925 168.232, 393 168.232 C 391.075 168.232, 390.288 168.438, 391.250 168.689 M 124.250 173.220 L 122 174.306 122.234 204.403 L 122.469 234.500 122.747 205 C 123.023 175.796, 123.048 175.483, 125.263 173.772 C 127.804 171.810, 127.508 171.649, 124.250 173.220 M 354.023 172.261 C 354.010 172.679, 354.925 174.991, 356.057 177.397 C 358.522 182.642, 363.904 189.116, 368.300 192.126 C 370.102 193.360, 369.195 192.172, 366.225 189.408 C 363.273 186.662, 359.429 181.636, 357.497 178 C 355.599 174.425, 354.035 171.842, 354.023 172.261 M 428.039 177.916 C 425.486 183.366, 420.448 189.002, 414.750 192.780 C 410.194 195.800, 409.797 196.804, 414.146 194.307 C 418.987 191.527, 426.667 183.319, 429.068 178.359 C 430.257 175.904, 431.029 173.695, 430.784 173.451 C 430.539 173.206, 429.304 175.216, 428.039 177.916 M 207.787 212.406 C 207.629 224.729, 207.838 234.602, 208.250 234.347 C 208.662 234.091, 209 224.261, 209 212.501 L 209 191.121 212.750 190.728 L 216.500 190.336 212.287 190.168 L 208.073 190 207.787 212.406 M 218.250 190.689 C 219.213 190.941, 220.787 190.941, 221.750 190.689 C 222.713 190.438, 221.925 190.232, 220 190.232 C 218.075 190.232, 217.287 190.438, 218.250 190.689 M 225.250 190.689 C 226.213 190.941, 227.787 190.941, 228.750 190.689 C 229.713 190.438, 228.925 190.232, 227 190.232 C 225.075 190.232, 224.287 190.438, 225.250 190.689 M 233.250 190.689 C 234.213 190.941, 235.787 190.941, 236.750 190.689 C 237.713 190.438, 236.925 190.232, 235 190.232 C 233.075 190.232, 232.287 190.438, 233.250 190.689 M 238.777 221.951 C 238.592 243.252, 238.833 253.568, 239.500 252.901 C 240.702 251.698, 241.047 190, 239.852 190 C 239.413 190, 238.930 204.378, 238.777 221.951 M 372.750 194.998 C 373.634 195.990, 374 200.872, 374 211.688 L 374 226.976 335.750 227.250 L 297.500 227.524 336.250 227.762 L 375 228 375 212.122 C 375 198.172, 374.788 196.084, 373.250 194.921 C 371.761 193.794, 371.687 193.806, 372.750 194.998 M 406.200 197.200 C 405.320 198.080, 405 206.354, 405 228.191 L 405 257.983 351.250 258.250 L 297.500 258.518 351.750 258.759 L 406 259 406.038 251.250 C 406.058 246.988, 406.086 233.319, 406.099 220.875 C 406.123 198.602, 406.158 198.234, 408.312 197.193 C 409.790 196.478, 409.997 196.113, 408.950 196.068 C 408.097 196.030, 406.860 196.540, 406.200 197.200 M 124 234.404 C 124 235.065, 130.176 238.736, 133.261 239.909 C 137.990 241.707, 136.250 240.155, 130 237 C 126.700 235.334, 124 234.166, 124 234.404 M 83 238 C 81.075 239.054, 79.860 239.935, 80.300 239.958 C 81.359 240.014, 87 237.081, 87 236.474 C 87 235.820, 86.941 235.842, 83 238 M 200 238 C 198.075 239.054, 196.860 239.935, 197.300 239.958 C 198.359 240.014, 204 237.081, 204 236.474 C 204 235.820, 203.941 235.842, 200 238 M 187.500 244.518 C 184.200 246.419, 181.895 247.981, 182.378 247.987 C 183.432 248.002, 194 242.036, 194 241.427 C 194 240.780, 193.928 240.814, 187.500 244.518 M 141 243.384 C 141 243.899, 146.855 247.370, 149.250 248.276 C 152.792 249.615, 150.854 247.960, 146 245.500 C 143.250 244.106, 141 243.154, 141 243.384 M 65.750 247.064 C 62.587 248.696, 60 250.256, 60 250.530 C 60 250.805, 62.700 249.666, 66 248 C 69.300 246.334, 72 244.753, 72 244.486 C 72 243.819, 72.185 243.742, 65.750 247.064 M 173.751 251.692 C 171.139 253.146, 169.158 254.491, 169.349 254.682 C 169.751 255.084, 179 250.036, 179 249.415 C 179 248.788, 178.856 248.850, 173.751 251.692 M 156.496 251.993 C 157.179 253.099, 164.086 256.247, 164.632 255.702 C 164.810 255.523, 162.908 254.382, 160.405 253.166 C 157.902 251.950, 156.143 251.422, 156.496 251.993 M 46.703 257.155 C 41.315 259.951, 37.081 262.414, 37.294 262.628 C 37.730 263.064, 57 253.084, 57 252.423 C 57 251.795, 57.246 251.682, 46.703 257.155 M 227.750 258.566 C 225.137 259.926, 223 261.262, 223 261.536 C 223 261.810, 225.250 260.894, 228 259.500 C 230.750 258.106, 233 256.749, 233 256.483 C 233 255.822, 233.090 255.786, 227.750 258.566 M 104.655 261.750 C 104.400 262.163, 105.455 262.500, 107 262.500 C 108.545 262.500, 109.600 262.163, 109.345 261.750 C 109.091 261.337, 108.035 261, 107 261 C 105.965 261, 104.909 261.337, 104.655 261.750 M 34.250 263.662 C 33.267 264.059, 33 278.486, 33 331.083 C 33 367.887, 33.337 398, 33.750 398 C 34.163 398, 34.381 368.242, 34.236 331.870 C 34.043 283.605, 34.279 265.369, 35.108 264.370 C 36.311 262.921, 36.237 262.860, 34.250 263.662 M 91.196 268.686 C 85.529 271.733, 81.058 274.391, 81.259 274.592 C 81.618 274.951, 101.652 264.681, 102.766 263.567 C 104.355 261.979, 100.486 263.690, 91.196 268.686 M 111.083 263.393 C 112.003 264.259, 119.109 267.998, 119.780 267.969 C 120.805 267.924, 112.691 263.011, 111.583 263.005 C 111.079 263.002, 110.854 263.177, 111.083 263.393 M 213.740 265.894 C 207.983 269.272, 206.200 270.916, 210.871 268.539 C 216.046 265.905, 220.614 263.002, 219.500 263.054 C 218.950 263.080, 216.358 264.358, 213.740 265.894 M 465.815 268.035 C 463.788 269.105, 461.865 270.410, 461.541 270.933 C 461.076 271.685, 469.191 267.702, 470.917 266.331 C 472.241 265.279, 468.954 266.377, 465.815 268.035 M 501.678 267.487 C 504.073 269.164, 509 271.189, 509 270.496 C 509 269.942, 501.387 266, 500.317 266 C 499.898 266, 500.510 266.669, 501.678 267.487 M 126.083 271.373 C 126.313 271.578, 128.075 272.500, 130 273.422 L 133.500 275.099 131.139 273.049 C 129.841 271.922, 128.078 271, 127.223 271 C 126.367 271, 125.854 271.168, 126.083 271.373 M 199.500 273.474 C 194.275 276.692, 195.534 276.721, 201.148 273.512 C 203.542 272.144, 205.050 271.021, 204.500 271.017 C 203.950 271.013, 201.700 272.119, 199.500 273.474 M 456.394 275.250 C 453.329 278.573, 449.742 283.306, 451.657 281.500 C 453.794 279.487, 460.220 272, 459.813 272 C 459.581 272, 458.043 273.462, 456.394 275.250 M 512.856 274.845 C 514.701 276.580, 516.459 278, 516.761 278 C 517.738 278, 513.584 273.847, 511.511 272.752 C 510.405 272.168, 511.010 273.110, 512.856 274.845 M 71.821 279.028 C 68.698 280.641, 65.860 282.418, 65.514 282.978 C 64.878 284.006, 75.689 278.470, 77.450 276.866 C 78.967 275.484, 77.871 275.905, 71.821 279.028 M 138 277.534 C 138 277.772, 140.363 279.145, 143.250 280.585 C 146.137 282.025, 147.825 282.522, 147 281.689 C 145.504 280.179, 138 276.714, 138 277.534 M 185.724 280.579 L 180.948 283.065 181.224 298.056 L 181.500 313.047 185.750 315.580 C 191.127 318.785, 191.299 318.125, 186 314.619 L 182 311.972 182 297.693 L 182 283.414 187.250 280.768 C 190.137 279.312, 192.050 278.115, 191.500 278.107 C 190.950 278.100, 188.351 279.212, 185.724 280.579 M 517.827 280.629 C 518.392 281.658, 519.583 283.400, 520.475 284.500 C 521.980 286.356, 521.986 286.271, 520.556 283.313 C 519.708 281.561, 518.516 279.819, 517.907 279.443 C 517.115 278.953, 517.092 279.290, 517.827 280.629 M 447.657 287.450 C 447.135 288.811, 438.472 289.017, 372.284 289.250 L 297.500 289.513 372.781 289.756 C 439.857 289.973, 448.127 289.832, 448.655 288.457 C 448.981 287.608, 449.022 286.689, 448.747 286.414 C 448.472 286.139, 447.982 286.605, 447.657 287.450 M 89.515 291.365 C 87.794 292.624, 87.890 292.722, 90.735 292.615 C 93.083 292.528, 93.575 292.201, 92.789 291.250 C 91.527 289.725, 91.770 289.716, 89.515 291.365 M 481.250 294.662 C 480.563 294.940, 480 295.595, 480 296.119 C 480 296.692, 480.768 296.659, 481.934 296.035 C 485.041 294.373, 487.634 294.821, 490.923 297.589 C 492.615 299.013, 494 299.681, 494 299.074 C 494 296.163, 485.133 293.095, 481.250 294.662 M 78.656 297.116 C 76.541 298.232, 75.055 299.388, 75.353 299.686 C 75.883 300.216, 83 296.244, 83 295.418 C 83 294.832, 82.944 294.854, 78.656 297.116 M 97.963 301.927 C 99.609 305.187, 101.359 308.104, 101.853 308.409 C 102.346 308.714, 101.201 306.047, 99.308 302.482 C 94.997 294.364, 93.921 293.920, 97.963 301.927 M 525.256 304.500 C 525.278 312.375, 525.364 312.812, 525.942 308 C 526.306 304.975, 526.294 300.925, 525.917 299 C 525.464 296.694, 525.239 298.570, 525.256 304.500 M 68 303 C 66.075 304.054, 64.860 304.935, 65.300 304.958 C 66.359 305.014, 72 302.081, 72 301.474 C 72 300.820, 71.941 300.842, 68 303 M 491.710 309.589 C 489.499 312.546, 485.636 313.611, 482.426 312.148 C 481.047 311.520, 480 311.446, 480 311.976 C 480 312.489, 481.520 313.195, 483.379 313.543 C 487.088 314.239, 492.683 311.991, 493.675 309.405 C 494.619 306.944, 493.618 307.038, 491.710 309.589 M 103.042 310.300 C 103.019 310.739, 103.703 312.459, 104.563 314.121 C 105.794 316.503, 105.870 317.451, 104.921 318.595 C 103.938 319.780, 104.018 319.930, 105.359 319.416 C 106.261 319.069, 106.981 318.272, 106.958 317.643 C 106.908 316.280, 103.102 309.144, 103.042 310.300 M 142.250 318.552 C 138.262 321.585, 135 324.302, 135 324.590 C 135 325.167, 135.911 324.533, 144.285 318.130 C 149.249 314.334, 150.734 312.946, 149.750 313.019 C 149.613 313.029, 146.238 315.519, 142.250 318.552 M 193.500 320.469 C 195.150 321.821, 196.925 322.944, 197.444 322.964 C 197.964 322.984, 196.864 321.875, 195 320.500 C 190.641 317.284, 189.588 317.263, 193.500 320.469 M 324.500 320.732 C 394.829 321.422, 449 321.430, 449 320.750 C 449 320.337, 414.913 320.105, 373.250 320.233 C 331.587 320.362, 309.650 320.586, 324.500 320.732 M 94.530 324.060 C 92.346 325.149, 90.096 326.530, 89.530 327.128 C 88.963 327.726, 90.862 327.034, 93.750 325.591 C 96.638 324.147, 99 322.749, 99 322.483 C 99 321.827, 99.025 321.818, 94.530 324.060 M 199 323.533 C 199 323.779, 201.444 325.602, 204.432 327.586 C 208.284 330.144, 209.688 331.648, 209.262 332.760 C 208.865 333.795, 209.058 334.082, 209.830 333.605 C 212.127 332.185, 210.892 330.447, 204.989 326.793 C 201.695 324.754, 199 323.287, 199 323.533 M 451.706 326.861 C 454.600 332.283, 467.048 342.169, 470.710 341.953 C 471.145 341.928, 469.360 340.793, 466.745 339.432 C 461.974 336.949, 454.927 330.673, 451.660 326 C 450.091 323.755, 450.096 323.843, 451.706 326.861 M 518.304 326.750 C 517.345 328.262, 514.972 330.944, 513.030 332.708 C 511.089 334.473, 510.010 335.935, 510.634 335.958 C 511.905 336.005, 518.232 329.303, 519.953 326.088 C 521.586 323.036, 520.340 323.536, 518.304 326.750 M 129.500 328.558 C 127.636 330.141, 127.288 330.728, 128.582 330.107 C 130.441 329.216, 133.812 325.992, 132.872 326.005 C 132.668 326.008, 131.150 327.156, 129.500 328.558 M 77.815 333.035 C 75.788 334.105, 73.865 335.410, 73.541 335.933 C 73.076 336.685, 81.191 332.702, 82.917 331.331 C 84.241 330.279, 80.954 331.377, 77.815 333.035 M 131.437 340.329 C 132.977 342.348, 134.440 344, 134.687 344 C 135.381 344, 131.052 338.150, 129.772 337.359 C 129.148 336.973, 129.897 338.310, 131.437 340.329 M 205.820 338.750 C 203.889 341.017, 199.705 348, 200.277 348 C 200.519 348, 202.360 345.525, 204.369 342.500 C 208.025 336.993, 208.616 335.466, 205.820 338.750 M 501.500 340.595 C 498.750 341.931, 497.625 342.736, 499 342.385 C 501.930 341.637, 507 339.158, 507 338.474 C 507 337.882, 507.413 337.723, 501.500 340.595 M 164.405 341.233 C 162.789 343.127, 162.770 343.256, 164.280 342.086 C 165.724 340.966, 166.568 340.938, 168.760 341.937 C 171.453 343.164, 171.456 343.161, 169.576 341.084 C 167.209 338.469, 166.752 338.482, 164.405 341.233 M 152.534 350.125 C 148.152 353.468, 144.402 355.707, 144.200 355.101 C 143.999 354.496, 143.324 354, 142.702 354 C 142.061 354, 142.271 354.700, 143.187 355.616 C 144.675 357.103, 145.445 356.734, 152.901 350.954 C 160.007 345.446, 161.723 343.931, 160.750 344.024 C 160.613 344.037, 156.915 346.783, 152.534 350.125 M 482.768 344.725 C 484.565 344.947, 487.265 344.943, 488.768 344.715 C 490.271 344.486, 488.800 344.304, 485.500 344.310 C 482.200 344.315, 480.971 344.502, 482.768 344.725 M 137.857 348.750 C 139.111 350.538, 140.346 352, 140.603 352 C 141.468 352, 139.126 348.349, 137.344 346.918 C 136.091 345.912, 136.240 346.444, 137.857 348.750 M 176.083 346.338 C 178.233 348.082, 186 352.983, 186 352.596 C 186 351.940, 177.358 346, 176.403 346 C 175.998 346, 175.854 346.152, 176.083 346.338 M 412 346.613 C 412 347.170, 413.461 348.948, 415.246 350.563 L 418.493 353.500 416.011 350.500 C 414.647 348.850, 413.186 347.072, 412.765 346.550 C 412.290 345.960, 412 345.984, 412 346.613 M 196.486 353.020 C 194.048 356.538, 193.501 356.869, 192.100 355.672 C 190.455 354.265, 187 352.760, 187 353.450 C 187 353.663, 188.600 354.826, 190.555 356.034 C 194.509 358.478, 194.487 358.490, 198.483 351.750 C 200.922 347.635, 199.663 348.436, 196.486 353.020 M 420.095 355.500 C 420.840 356.600, 423.171 359.300, 425.276 361.500 C 427.381 363.700, 431.235 367.865, 433.842 370.755 L 438.581 376.009 444.514 374.913 C 447.778 374.309, 452.259 374.094, 454.474 374.435 C 465.491 376.128, 465.821 376.133, 461 374.528 C 456.062 372.885, 449.683 372.668, 443.500 373.935 L 439.500 374.754 429.121 364.127 C 423.412 358.282, 419.350 354.400, 420.095 355.500 M 150.306 379.852 C 143.172 384.863, 142.439 385.887, 148.740 382.040 C 151.622 380.280, 154.237 378.426, 154.549 377.920 C 155.525 376.342, 156.505 376.891, 158.382 380.069 C 159.379 381.757, 160.425 382.908, 160.707 382.627 C 161.330 382.003, 157.139 375.959, 156.182 376.102 C 155.807 376.159, 153.163 377.846, 150.306 379.852 M 348.027 377.986 L 398.554 378.500 406.340 386.956 C 411.641 392.713, 413.976 395.985, 413.656 397.207 C 413.398 398.195, 413.595 398.751, 414.093 398.442 C 416.113 397.194, 414.627 394.661, 406.815 386.036 L 398.630 377 348.065 377.236 L 297.500 377.472 348.027 377.986 M 473.405 380.854 C 474.453 382.035, 475.717 383, 476.214 383 C 477.622 383, 476.125 381.135, 473.694 379.860 C 471.515 378.717, 471.513 378.724, 473.405 380.854 M 66 382.049 C 69.469 384.403, 71.444 385.088, 69 383.089 C 67.625 381.965, 66.050 381.041, 65.500 381.038 C 64.950 381.034, 65.175 381.489, 66 382.049 M 254 387.500 C 250.975 389.400, 248.911 390.965, 249.412 390.977 C 250.408 391.002, 260 385.039, 260 384.396 C 260 383.757, 259.762 383.881, 254 387.500 M 73 386.466 C 73 387.248, 79.125 391.209, 79.600 390.733 C 79.867 390.466, 78.491 389.307, 76.543 388.158 C 74.594 387.008, 73 386.247, 73 386.466 M 163.906 387.824 C 164.513 388.959, 165.503 390.193, 166.105 390.565 C 166.889 391.050, 166.886 390.656, 166.094 389.176 C 165.487 388.041, 164.497 386.807, 163.895 386.435 C 163.111 385.950, 163.114 386.344, 163.906 387.824 M 480.860 387.694 C 482.135 390.125, 484 391.622, 484 390.214 C 484 389.717, 483.035 388.453, 481.854 387.405 C 479.724 385.513, 479.717 385.515, 480.860 387.694 M 137 389.050 L 134.500 391.055 137.250 389.867 C 138.762 389.214, 140 388.301, 140 387.839 C 140 386.699, 139.861 386.755, 137 389.050 M 128.616 394.490 C 125.929 396.348, 123.229 398.412, 122.616 399.075 C 122.002 399.739, 124.313 398.401, 127.750 396.103 C 131.188 393.806, 134 391.717, 134 391.463 C 134 390.776, 133.906 390.829, 128.616 394.490 M 82.527 393.347 C 87.298 396.604, 90 398.195, 90 397.748 C 90 397.113, 82.259 392, 81.299 392 C 80.890 392, 81.443 392.606, 82.527 393.347 M 241.500 395.132 C 234.693 399.345, 233.333 400.981, 239.500 397.537 C 244.028 395.009, 248.137 391.971, 246.964 392.019 C 246.709 392.029, 244.250 393.430, 241.500 395.132 M 170.939 397.967 L 172.942 401.433 170.721 403.861 L 168.500 406.288 171.250 404.529 C 174.641 402.360, 174.673 401.311, 171.463 397.500 L 168.937 394.500 170.939 397.967 M 487.001 396.250 C 487.001 396.387, 487.919 398.750, 489.041 401.500 C 491.008 406.322, 490.987 403.726, 489.017 398.544 C 488.238 396.496, 486.997 395.084, 487.001 396.250 M 36.083 399.324 C 36.313 399.502, 38.075 400.668, 40 401.916 L 43.500 404.183 40.694 401.592 C 39.151 400.166, 37.389 399, 36.778 399 C 36.167 399, 35.854 399.146, 36.083 399.324 M 116.482 402.640 C 111.244 406.113, 109.739 407.630, 113.500 405.646 C 116.649 403.985, 121.870 400.060, 120.982 400.022 C 120.697 400.010, 118.672 401.188, 116.482 402.640 M 229.209 402.665 C 226.849 404.087, 225.153 405.487, 225.441 405.774 C 225.929 406.262, 234 401.161, 234 400.364 C 234 399.802, 233.789 399.904, 229.209 402.665 M 95.412 401.857 C 95.808 402.498, 98.569 404.582, 101.548 406.487 C 106.572 409.701, 110 410.222, 110 407.771 C 110 407.180, 109.381 407.269, 108.518 407.985 C 107.306 408.991, 106.171 408.595, 102.268 405.805 C 95.702 401.111, 94.535 400.439, 95.412 401.857 M 453.083 405.303 C 453.313 405.469, 454.850 406.396, 456.500 407.362 L 459.500 409.119 457.139 407.059 C 455.841 405.927, 454.303 405, 453.723 405 C 453.142 405, 452.854 405.136, 453.083 405.303 M 47 406.393 C 47 406.664, 51.287 409.813, 56.527 413.391 C 61.767 416.969, 65.786 419.462, 65.458 418.932 C 65.130 418.402, 61.421 415.613, 57.216 412.734 C 47.688 406.213, 47 405.785, 47 406.393 M 164.405 408.146 C 162.513 410.276, 162.515 410.283, 164.694 409.140 C 167.125 407.865, 168.622 406, 167.214 406 C 166.717 406, 165.453 406.965, 164.405 408.146 M 219.142 409.019 C 213.213 412.915, 212.587 413.816, 217.807 410.940 C 220.176 409.635, 222.593 407.990, 223.179 407.284 C 224.648 405.514, 224.150 405.728, 219.142 409.019 M 318.750 406.749 C 330.438 406.909, 349.563 406.909, 361.250 406.749 C 372.938 406.589, 363.375 406.458, 340 406.458 C 316.625 406.458, 307.063 406.589, 318.750 406.749 M 443.655 407.829 C 442.745 408.835, 442.014 410.297, 442.030 411.079 C 442.050 411.975, 442.465 411.761, 443.155 410.500 C 443.756 409.400, 444.954 407.938, 445.815 407.250 C 446.677 406.563, 446.916 406, 446.346 406 C 445.776 406, 444.565 406.823, 443.655 407.829 M 410.320 414 C 410.320 417.575, 410.502 419.038, 410.723 417.250 C 410.945 415.462, 410.945 412.538, 410.723 410.750 C 410.502 408.962, 410.320 410.425, 410.320 414 M 491.320 414 C 491.320 417.575, 491.502 419.038, 491.723 417.250 C 491.945 415.462, 491.945 412.538, 491.723 410.750 C 491.502 408.962, 491.320 410.425, 491.320 414 M 151.150 417.006 C 145.552 421.062, 145.844 421.891, 151.500 418 C 155.471 415.268, 156.786 414, 155.650 414 C 155.458 414, 153.433 415.353, 151.150 417.006 M 203.142 419.019 C 196.862 423.146, 196.706 423.732, 202.750 420.494 C 205.637 418.948, 208 417.304, 208 416.841 C 208 415.773, 208.259 415.657, 203.142 419.019 M 442.079 417.095 C 442.036 417.972, 443.012 419.547, 444.250 420.595 C 446.481 422.484, 446.486 422.483, 444.880 420.500 C 443.990 419.400, 443.013 417.825, 442.709 417 C 442.241 415.727, 442.146 415.741, 442.079 417.095 M 263.441 418.555 C 261.577 420.049, 261.589 420.067, 263.750 419.020 L 266 417.930 266 470.430 C 266 522.625, 265.988 522.936, 263.914 524.046 C 262.767 524.660, 262.054 525.387, 262.329 525.662 C 262.604 525.937, 263.767 525.660, 264.914 525.046 C 266.989 523.936, 267 523.638, 267 470.465 C 267 441.059, 266.636 417, 266.191 417 C 265.746 417, 264.509 417.700, 263.441 418.555 M 456.814 420.219 C 455.336 421.749, 454.470 423, 454.889 423 C 455.838 423, 460.497 418.114, 459.921 417.723 C 459.689 417.566, 458.291 418.689, 456.814 420.219 M 67 420.341 C 67 420.557, 68.912 421.996, 71.250 423.537 C 73.654 425.122, 74.880 425.586, 74.073 424.604 C 72.718 422.956, 67 419.510, 67 420.341 M 141.500 423.558 C 139.850 424.959, 139.400 425.665, 140.500 425.126 C 143.460 423.676, 146.650 421.068, 145.500 421.037 C 144.950 421.022, 143.150 422.156, 141.500 423.558 M 255.861 423.049 L 253.500 425.099 256.750 423.524 C 259.948 421.974, 260.859 421, 259.111 421 C 258.622 421, 257.159 421.922, 255.861 423.049 M 488.714 427.214 C 487.804 430.062, 487.225 432.558, 487.427 432.761 C 487.630 432.964, 488.563 430.821, 489.500 428 C 490.437 425.179, 491.016 422.683, 490.787 422.454 C 490.558 422.224, 489.625 424.367, 488.714 427.214 M 193.250 425.115 C 190.043 427.169, 189.284 428.034, 190.750 427.964 C 191.578 427.924, 197.802 423.003, 197 423.022 C 196.725 423.028, 195.037 423.970, 193.250 425.115 M 132.623 429.524 C 125.705 434.248, 124.514 435.784, 130.753 431.936 C 133.643 430.155, 136.510 428.090, 137.126 427.348 C 138.670 425.488, 138.205 425.713, 132.623 429.524 M 244.780 429.845 C 242.184 431.328, 239.484 433.154, 238.780 433.903 C 237.263 435.519, 246.836 430.290, 248.964 428.341 C 251.022 426.457, 250.192 426.755, 244.780 429.845 M 79 428.215 C 79 428.460, 81.025 430.115, 83.500 431.893 C 85.975 433.670, 88 434.755, 88 434.303 C 88 433.851, 86.987 432.854, 85.750 432.088 C 84.513 431.321, 82.487 430.036, 81.250 429.232 C 80.013 428.428, 79 427.970, 79 428.215 M 182.332 431.814 C 176.522 435.558, 175.641 436.786, 180.807 433.940 C 183.176 432.635, 185.593 430.990, 186.179 430.284 C 187.646 428.516, 187.133 428.721, 182.332 431.814 M 413.016 429.554 C 412.997 430.811, 418.712 440, 419.513 440 C 419.820 440, 419.578 439.212, 418.977 438.250 C 418.376 437.288, 416.792 434.700, 415.458 432.500 C 414.124 430.300, 413.025 428.974, 413.016 429.554 M 484.430 436.281 C 483.369 437.536, 481.825 439.449, 481 440.531 C 479.601 442.367, 479.621 442.405, 481.297 441.089 C 483.110 439.664, 487.467 434, 486.748 434 C 486.535 434, 485.492 435.027, 484.430 436.281 M 89.750 436.141 C 90.701 437.099, 91 445.591, 91 471.665 L 91 505.930 93.250 507.110 C 95.433 508.256, 95.448 508.233, 93.750 506.317 C 92.156 504.519, 92 501.302, 92 470.278 C 92 438.757, 91.869 436.164, 90.250 435.548 C 88.847 435.014, 88.748 435.131, 89.750 436.141 M 122.667 436.667 C 122.300 437.033, 122 448.685, 122 462.560 C 122 485.027, 122.180 487.855, 123.641 488.416 C 124.965 488.924, 125.055 488.771, 124.108 487.630 C 123.259 486.607, 123.011 479.242, 123.216 461.106 C 123.372 447.297, 123.463 435.999, 123.417 435.999 C 123.371 436, 123.033 436.300, 122.667 436.667 M 231.861 438.056 C 230.005 439.673, 229.928 439.894, 231.500 439.090 C 234.892 437.355, 236.554 436.031, 235.361 436.015 C 234.734 436.007, 233.159 436.925, 231.861 438.056 M 323.750 437.741 L 350 438.033 350 450.967 C 350 462.230, 349.774 464.032, 348.250 464.920 C 347.288 465.481, 346.950 465.946, 347.500 465.954 C 350.684 466.002, 351.059 464.284, 350.780 450.922 L 350.500 437.500 324 437.474 L 297.500 437.448 323.750 437.741 M 167.500 441 C 165.631 442.237, 165.102 442.989, 166.095 442.993 C 166.972 442.997, 168.505 442.100, 169.500 441 C 171.776 438.485, 171.297 438.485, 167.500 441 M 160.044 445.932 L 157.588 447.819 159.544 451.493 C 161.558 455.274, 163 456.819, 163 455.194 C 163 454.686, 162.100 453.126, 161 451.727 C 158.490 448.536, 158.503 448.235, 161.250 445.944 C 164.183 443.496, 163.225 443.487, 160.044 445.932 M 217.732 446.536 C 212.621 450.009, 213.010 450.642, 218.250 447.378 C 223.349 444.202, 223.597 444, 222.399 444 C 221.885 444, 219.785 445.141, 217.732 446.536 M 473.962 447.079 L 470.500 450.158 473.720 448.032 C 476.574 446.148, 478.733 444, 477.771 444 C 477.581 444, 475.866 445.385, 473.962 447.079 M 429 448.591 C 429 448.788, 430.462 449.705, 432.250 450.630 C 440.771 455.039, 453.569 456.208, 462.917 453.432 C 465.821 452.570, 467.976 451.643, 467.706 451.373 C 467.436 451.103, 464.615 451.638, 461.437 452.561 C 453.682 454.816, 443.495 454.119, 435.250 450.771 C 431.813 449.375, 429 448.394, 429 448.591 M 206.155 453.978 C 202.770 456.166, 200 458.181, 200 458.456 C 200 458.903, 211.676 451.657, 212.855 450.479 C 214.272 449.062, 211.614 450.450, 206.155 453.978 M 165 459.262 C 165 460.245, 171.057 470, 171.667 470 C 171.940 470, 171.146 468.313, 169.902 466.250 C 166.520 460.641, 165 458.474, 165 459.262 M 194.861 461.056 C 193.005 462.673, 192.928 462.894, 194.500 462.090 C 197.892 460.355, 199.554 459.031, 198.361 459.015 C 197.734 459.007, 196.159 459.925, 194.861 461.056 M 185.281 466.746 C 181.861 468.753, 179.247 470.580, 179.473 470.806 C 179.916 471.250, 192 464.133, 192 463.428 C 192 462.801, 192.032 462.785, 185.281 466.746 M 341.417 469.591 L 337.500 473.182 341.750 470.007 C 345.543 467.173, 346.690 466, 345.667 466 C 345.483 466, 343.571 467.616, 341.417 469.591 M 393 472.195 C 395.475 474.679, 398.325 477.789, 399.333 479.106 C 400.768 480.981, 400.727 480.741, 399.142 478 C 398.029 476.075, 395.180 472.965, 392.810 471.089 L 388.500 467.678 393 472.195 M 333.807 476.750 C 332.981 477.712, 331.924 479.175, 331.460 480 C 330.724 481.308, 330.840 481.319, 332.363 480.082 C 334.040 478.720, 336.476 475, 335.690 475 C 335.481 475, 334.634 475.788, 333.807 476.750 M 326.875 489.683 C 325.171 494.597, 325.142 508.249, 326.825 513.851 C 327.543 516.244, 328.357 517.976, 328.634 517.700 C 328.910 517.423, 328.430 514.821, 327.568 511.917 C 325.621 505.361, 325.592 499.123, 327.475 492.047 C 329.173 485.668, 328.791 484.162, 326.875 489.683 M 404.789 491 C 405.695 495.461, 405.706 507.304, 404.810 512.500 L 404.119 516.500 405.483 512.500 C 407.242 507.340, 407.231 496.613, 405.462 491.500 C 404.158 487.730, 404.119 487.702, 404.789 491 M 127 490.347 C 127 491.026, 136.092 496.241, 136.523 495.810 C 136.725 495.609, 134.664 494.193, 131.945 492.664 C 129.225 491.135, 127 490.093, 127 490.347 M 198 493.045 C 195.525 494.650, 193.958 495.971, 194.518 495.981 C 195.078 495.992, 197.277 494.817, 199.406 493.370 C 202.642 491.171, 203.410 490.981, 204.098 492.210 C 204.550 493.019, 205.863 494.765, 207.015 496.090 C 208.407 497.692, 208.209 497.074, 206.422 494.250 C 204.944 491.913, 203.457 490.029, 203.117 490.064 C 202.778 490.099, 200.475 491.441, 198 493.045 M 359.004 495.496 C 357.714 496.869, 356.848 498.120, 357.079 498.277 C 357.311 498.434, 358.709 497.311, 360.186 495.781 C 361.664 494.251, 362.530 493, 362.111 493 C 361.691 493, 360.293 494.123, 359.004 495.496 M 370.214 494.060 C 371.157 494.609, 372.619 496.046, 373.464 497.252 C 374.309 498.458, 375 498.912, 375 498.261 C 375 496.812, 371.025 492.988, 369.561 493.030 C 368.978 493.047, 369.271 493.510, 370.214 494.060 M 141.437 498.899 C 141.825 499.525, 144.472 501.203, 147.321 502.626 C 153.509 505.719, 152.474 504.455, 145.617 500.544 C 142.931 499.013, 141.050 498.272, 141.437 498.899 M 185.500 500.474 C 183.300 501.829, 181.812 502.952, 182.193 502.969 C 183.059 503.008, 190 498.947, 190 498.401 C 190 497.750, 189.691 497.893, 185.500 500.474 M 209.015 499.639 C 209.007 500.266, 209.925 501.841, 211.056 503.139 C 212.673 504.995, 212.894 505.072, 212.090 503.500 C 210.355 500.108, 209.031 498.446, 209.015 499.639 M 153 505.282 C 153 505.966, 160.487 511, 161.504 511 C 161.997 511, 161.972 510.622, 161.450 510.160 C 159.885 508.776, 153 504.802, 153 505.282 M 173.191 507.708 C 170.821 509.087, 169.091 510.424, 169.346 510.680 C 169.849 511.182, 178 506.292, 178 505.487 C 178 504.875, 178.285 504.743, 173.191 507.708 M 359.861 508.941 C 361.159 510.073, 362.697 511, 363.277 511 C 364.507 511, 364.448 510.950, 360.500 508.638 L 357.500 506.881 359.861 508.941 M 372.457 508.070 C 372.093 508.659, 370.829 509.530, 369.648 510.007 C 368.182 510.598, 368.007 510.893, 369.095 510.937 C 369.972 510.971, 371.505 510.100, 372.500 509 C 373.495 507.900, 374.042 507, 373.714 507 C 373.386 507, 372.820 507.482, 372.457 508.070 M 101.550 511.840 C 103.327 513.411, 110 517.166, 110 516.594 C 110 515.921, 102.365 511, 101.320 511 C 100.924 511, 101.027 511.378, 101.550 511.840 M 217.456 513.915 L 218.963 516.830 213.564 519.877 C 210.595 521.553, 207.854 523.428, 207.473 524.044 C 206.865 525.027, 209.185 523.745, 217.760 518.360 C 219.908 517.011, 219.944 516.792, 218.485 513.970 C 217.640 512.337, 216.724 511, 216.449 511 C 216.174 511, 216.627 512.312, 217.456 513.915 M 400.498 522.414 C 397.331 527.817, 390.622 534.132, 385.003 536.999 C 382.695 538.176, 381.006 539.340, 381.251 539.584 C 382.220 540.553, 390.756 534.829, 395.097 530.298 C 399.413 525.794, 404.817 518, 403.624 518 C 403.327 518, 401.920 519.986, 400.498 522.414 M 114.083 519.354 C 115.421 520.489, 124 525.106, 124 524.690 C 124 524.079, 115.436 519, 114.405 519 C 113.999 519, 113.854 519.159, 114.083 519.354 M 331.706 523.834 C 334.059 528.208, 341.654 535.273, 346.858 537.928 C 352.777 540.947, 351.981 539.744, 345.722 536.212 C 340.784 533.425, 335.906 528.824, 331.706 522.991 C 329.982 520.596, 329.982 520.628, 331.706 523.834 M 127 527.052 C 129.874 529.009, 134 531.048, 134 530.511 C 134 529.762, 127.727 526.005, 126.500 526.019 C 125.950 526.025, 126.175 526.490, 127 527.052 M 200.250 527.989 C 197.221 529.836, 195.780 533, 197.969 533 C 198.501 533, 198.690 532.355, 198.388 531.568 C 198.040 530.661, 198.969 529.550, 200.919 528.542 C 202.614 527.666, 204 526.735, 204 526.474 C 204 525.754, 203.752 525.854, 200.250 527.989 M 251.750 531.068 C 247.720 533.196, 246.934 534.093, 249.750 533.353 C 251.393 532.921, 257.082 529.019, 256 529.066 C 255.725 529.079, 253.813 529.979, 251.750 531.068 M 200 533.449 C 200 533.724, 201.350 534.647, 203 535.500 C 204.650 536.353, 206 536.826, 206 536.551 C 206 536.276, 204.650 535.353, 203 534.500 C 201.350 533.647, 200 533.174, 200 533.449 M 140 534.415 C 140 534.642, 142.025 535.961, 144.500 537.344 C 150.068 540.456, 150.407 539.913, 145.020 536.513 C 141.121 534.051, 140 533.583, 140 534.415 M 241 537.500 C 237.975 539.400, 235.831 540.965, 236.235 540.977 C 237.136 541.005, 247 534.991, 247 534.414 C 247 533.755, 246.790 533.863, 241 537.500 M 208.861 538.951 C 210.159 540.078, 211.622 541, 212.111 541 C 213.859 541, 212.948 540.026, 209.750 538.476 L 206.500 536.901 208.861 538.951 M 152.500 541.702 C 153.050 542.270, 155.750 543.993, 158.500 545.532 C 161.250 547.070, 163.050 547.865, 162.500 547.298 C 161.950 546.730, 159.250 545.007, 156.500 543.468 C 153.750 541.930, 151.950 541.135, 152.500 541.702 M 293.250 542.989 C 291.462 544.079, 290 545.214, 290 545.511 C 290 546.048, 294.126 544.009, 297 542.052 C 299.753 540.177, 296.547 540.979, 293.250 542.989 M 360.750 542.391 C 363.820 542.912, 368.180 542.912, 371.250 542.391 C 375.952 541.593, 375.404 541.500, 366 541.500 C 356.596 541.500, 356.048 541.593, 360.750 542.391 M 216 542.545 C 216 542.782, 217.826 544.128, 220.058 545.536 C 224.388 548.270, 226.026 548.170, 230 544.927 L 232.500 542.887 228.427 544.874 L 224.353 546.861 220.177 544.488 C 217.879 543.183, 216 542.309, 216 542.545 M 283.001 549.067 C 279.977 550.733, 277.052 552.593, 276.501 553.199 C 275.450 554.355, 286.805 548.322, 288.450 546.850 C 290.118 545.357, 288.642 545.958, 283.001 549.067 M 166 550.052 C 168.650 551.856, 173 554.065, 173 553.607 C 173 552.962, 166.423 548.997, 165.382 549.015 C 164.897 549.024, 165.175 549.490, 166 550.052 M 174.500 554.757 C 175.050 555.294, 177.750 556.960, 180.500 558.458 C 183.250 559.956, 184.600 560.431, 183.500 559.513 C 181.238 557.625, 172.956 553.248, 174.500 554.757 M 266.701 558.444 C 264.611 559.684, 262.361 561.289, 261.701 562.009 C 260.590 563.221, 265.889 560.389, 270.473 557.321 C 273.727 555.142, 270.790 556.016, 266.701 558.444 M 191.500 564.726 C 192.050 565.251, 194.300 566.691, 196.500 567.926 C 198.700 569.161, 199.600 569.424, 198.500 568.510 C 196.266 566.653, 189.931 563.228, 191.500 564.726 M 254 566.082 L 251.500 568.120 254.750 566.535 C 256.538 565.662, 258 564.735, 258 564.474 C 258 563.480, 256.407 564.120, 254 566.082 M 202.083 571.354 C 203.517 572.570, 212 577.090, 212 576.637 C 212 575.957, 203.643 571, 202.495 571 C 202.040 571, 201.854 571.159, 202.083 571.354 M 240.482 573.640 C 234.935 577.318, 233.680 578.800, 238.500 575.981 C 244.502 572.470, 246.555 571, 245.455 571 C 244.910 571, 242.672 572.188, 240.482 573.640 M 213 577.331 C 213 577.618, 215.519 579.294, 218.598 581.056 L 224.195 584.259 228.348 581.986 C 234.584 578.573, 235.255 577.408, 229.258 580.405 L 224.015 583.026 218.508 579.917 C 215.478 578.208, 213 577.044, 213 577.331" stroke="none" fill="#04baba" fill-rule="evenodd"/></svg>